<svg width="254" height="254" viewBox="0 0 254 254" fill="#5f6368" xmlns="http://www.w3.org/2000/svg">
<path d="M63.5 84.6667C75.1417 84.6667 84.6667 75.1417 84.6667 63.5C84.6667 51.8583 75.1417 42.3333 63.5 42.3333C51.8583 42.3333 42.3333 51.8583 42.3333 63.5C42.3333 75.1417 51.8583 84.6667 63.5 84.6667ZM127 211.667C138.642 211.667 148.167 202.142 148.167 190.5C148.167 178.858 138.642 169.333 127 169.333C115.358 169.333 105.833 178.858 105.833 190.5C105.833 202.142 115.358 211.667 127 211.667ZM63.5 211.667C75.1417 211.667 84.6667 202.142 84.6667 190.5C84.6667 178.858 75.1417 169.333 63.5 169.333C51.8583 169.333 42.3333 178.858 42.3333 190.5C42.3333 202.142 51.8583 211.667 63.5 211.667ZM63.5 148.167C75.1417 148.167 84.6667 138.642 84.6667 127C84.6667 115.358 75.1417 105.833 63.5 105.833C51.8583 105.833 42.3333 115.358 42.3333 127C42.3333 138.642 51.8583 148.167 63.5 148.167ZM127 148.167C138.642 148.167 148.167 138.642 148.167 127C148.167 115.358 138.642 105.833 127 105.833C115.358 105.833 105.833 115.358 105.833 127C105.833 138.642 115.358 148.167 127 148.167ZM169.333 63.5C169.333 75.1417 178.858 84.6667 190.5 84.6667C202.142 84.6667 211.667 75.1417 211.667 63.5C211.667 51.8583 202.142 42.3333 190.5 42.3333C178.858 42.3333 169.333 51.8583 169.333 63.5ZM127 84.6667C138.642 84.6667 148.167 75.1417 148.167 63.5C148.167 51.8583 138.642 42.3333 127 42.3333C115.358 42.3333 105.833 51.8583 105.833 63.5C105.833 75.1417 115.358 84.6667 127 84.6667ZM190.5 148.167C202.142 148.167 211.667 138.642 211.667 127C211.667 115.358 202.142 105.833 190.5 105.833C178.858 105.833 169.333 115.358 169.333 127C169.333 138.642 178.858 148.167 190.5 148.167ZM190.5 211.667C202.142 211.667 211.667 202.142 211.667 190.5C211.667 178.858 202.142 169.333 190.5 169.333C178.858 169.333 169.333 178.858 169.333 190.5C169.333 202.142 178.858 211.667 190.5 211.667Z" fill="#5f6368"/>
</svg>
