<svg width="225" height="32" viewBox="0 0 225 32" fill="none" xmlns="http://www.w3.org/2000/svg">
<path d="M40.3484 16.7978C40.3484 21.1694 36.9284 24.3909 32.7314 24.3909C28.5343 24.3909 25.1144 21.1694 25.1144 16.7978C25.1144 12.3953 28.5343 9.20465 32.7314 9.20465C36.9284 9.20465 40.3484 12.3953 40.3484 16.7978ZM37.014 16.7978C37.014 14.0659 35.0319 12.1967 32.7314 12.1967C30.4309 12.1967 28.4487 14.0659 28.4487 16.7978C28.4487 19.5022 30.4309 21.3988 32.7314 21.3988C35.0319 21.3988 37.014 19.4988 37.014 16.7978Z" fill="#EA4335"/>
<path d="M56.7803 16.5931C56.7803 20.9648 53.3604 24.1862 49.1634 24.1862C44.9664 24.1862 41.5466 20.9648 41.5466 16.5931C41.5466 12.194 44.9664 9 49.1634 9C53.3604 9 56.7803 12.1906 56.7803 16.5931ZM53.446 16.5931C53.446 13.8612 51.4639 11.9921 49.1634 11.9921C46.863 11.9921 44.8809 13.8612 44.8809 16.5931C44.8809 19.2976 46.863 21.1942 49.1634 21.1942C51.4639 21.1942 53.446 19.2942 53.446 16.5931Z" fill="#FBBC05"/>
<path d="M73.2337 16.5931C73.2337 20.9648 69.8138 24.1862 65.6168 24.1862C61.4199 24.1862 58 20.9648 58 16.5931C58 12.194 61.4199 9 65.6168 9C69.8138 9 73.2337 12.1906 73.2337 16.5931ZM69.8994 16.5931C69.8994 13.8612 67.9173 11.9921 65.6168 11.9921C63.3164 11.9921 61.3343 13.8612 61.3343 16.5931C61.3343 19.2976 63.3164 21.1942 65.6168 21.1942C67.9173 21.1942 69.8994 19.2942 69.8994 16.5931Z" fill="#FBBC05"/>
<path d="M89.6877 16.5931C89.6877 20.9648 86.2678 24.1862 82.0708 24.1862C77.8739 24.1862 74.454 20.9648 74.454 16.5931C74.454 12.194 77.8739 9 82.0708 9C86.2678 9 89.6877 12.1906 89.6877 16.5931ZM86.3534 16.5931C86.3534 13.8612 84.3713 11.9921 82.0708 11.9921C79.7704 11.9921 77.7883 13.8612 77.7883 16.5931C77.7883 19.2976 79.7704 21.1942 82.0708 21.1942C84.3713 21.1942 86.3534 19.2942 86.3534 16.5931Z" fill="#FBBC05"/>
<path d="M106.141 16.5931C106.141 20.9648 102.721 24.1862 98.5245 24.1862C94.3275 24.1862 90.9077 20.9648 90.9077 16.5931C90.9077 12.194 94.3275 9 98.5245 9C102.721 9 106.141 12.1906 106.141 16.5931ZM102.807 16.5931C102.807 13.8612 100.825 11.9921 98.5245 11.9921C96.224 11.9921 94.242 13.8612 94.242 16.5931C94.242 19.2976 96.224 21.1942 98.5245 21.1942C100.825 21.1942 102.807 19.2942 102.807 16.5931Z" fill="#FBBC05"/>
<path d="M122.595 16.5931C122.595 20.9648 119.175 24.1862 114.978 24.1862C110.781 24.1862 107.361 20.9648 107.361 16.5931C107.361 12.194 110.781 9 114.978 9C119.175 9 122.595 12.1906 122.595 16.5931ZM119.261 16.5931C119.261 13.8612 117.279 11.9921 114.978 11.9921C112.678 11.9921 110.696 13.8612 110.696 16.5931C110.696 19.2976 112.678 21.1942 114.978 21.1942C117.279 21.1942 119.261 19.2942 119.261 16.5931Z" fill="#FBBC05"/>
<path d="M139.049 16.5931C139.049 20.9648 135.629 24.1862 131.432 24.1862C127.235 24.1862 123.815 20.9648 123.815 16.5931C123.815 12.194 127.235 9 131.432 9C135.629 9 139.049 12.1906 139.049 16.5931ZM135.714 16.5931C135.714 13.8612 133.732 11.9921 131.432 11.9921C129.131 11.9921 127.149 13.8612 127.149 16.5931C127.149 19.2976 129.131 21.1942 131.432 21.1942C133.732 21.1942 135.714 19.2942 135.714 16.5931Z" fill="#FBBC05"/>
<path d="M155.502 16.5931C155.502 20.9648 152.082 24.1862 147.886 24.1862C143.689 24.1862 140.269 20.9648 140.269 16.5931C140.269 12.194 143.689 9 147.886 9C152.082 9 155.502 12.1906 155.502 16.5931ZM152.168 16.5931C152.168 13.8612 150.186 11.9921 147.886 11.9921C145.585 11.9921 143.603 13.8612 143.603 16.5931C143.603 19.2976 145.585 21.1942 147.886 21.1942C150.186 21.1942 152.168 19.2942 152.168 16.5931Z" fill="#FBBC05"/>
<path d="M171.956 16.5931C171.956 20.9648 168.536 24.1862 164.339 24.1862C160.142 24.1862 156.722 20.9648 156.722 16.5931C156.722 12.194 160.142 9 164.339 9C168.536 9 171.956 12.1906 171.956 16.5931ZM168.622 16.5931C168.622 13.8612 166.64 11.9921 164.339 11.9921C162.039 11.9921 160.057 13.8612 160.057 16.5931C160.057 19.2976 162.039 21.1942 164.339 21.1942C166.64 21.1942 168.622 19.2942 168.622 16.5931Z" fill="#FBBC05"/>
<path d="M188.41 16.5931C188.41 20.9648 184.99 24.1862 180.793 24.1862C176.596 24.1862 173.176 20.9648 173.176 16.5931C173.176 12.194 176.596 9 180.793 9C184.99 9 188.41 12.1906 188.41 16.5931ZM185.075 16.5931C185.075 13.8612 183.093 11.9921 180.793 11.9921C178.492 11.9921 176.51 13.8612 176.51 16.5931C176.51 19.2976 178.492 21.1942 180.793 21.1942C183.093 21.1942 185.075 19.2942 185.075 16.5931Z" fill="#FBBC05"/>
<path d="M204.186 9.66338V23.2952C204.186 28.9027 200.879 31.1929 196.969 31.1929C193.289 31.1929 191.074 28.7315 190.239 26.7186L193.142 25.5102C193.659 26.746 194.926 28.2043 196.966 28.2043C199.468 28.2043 201.019 26.6604 201.019 23.754V22.6619H200.903C200.156 23.5828 198.719 24.3873 196.904 24.3873C193.108 24.3873 189.63 21.0803 189.63 16.8251C189.63 12.539 193.108 9.20465 196.904 9.20465C198.715 9.20465 200.153 10.0091 200.903 10.9026H201.019V9.66681H204.186V9.66338ZM201.255 16.8251C201.255 14.1514 199.472 12.1967 197.202 12.1967C194.902 12.1967 192.974 14.1514 192.974 16.8251C192.974 19.4713 194.902 21.3987 197.202 21.3987C199.472 21.3987 201.255 19.4713 201.255 16.8251Z" fill="#4285F4"/>
<path d="M209.408 1.67322V23.9254H206.156V1.67322H209.408Z" fill="#34A853"/>
<path d="M222.082 19.2967L224.671 21.022C223.835 22.2579 221.822 24.3872 218.344 24.3872C214.03 24.3872 210.808 21.0528 210.808 16.7942C210.808 12.2788 214.057 9.20114 217.97 9.20114C221.911 9.20114 223.839 12.3369 224.469 14.0315L224.814 14.8942L214.663 19.0981C215.44 20.6215 216.649 21.3986 218.344 21.3986C220.042 21.3986 221.219 20.5633 222.082 19.2967ZM214.115 16.5648L220.901 13.7474C220.528 12.7991 219.405 12.1384 218.083 12.1384C216.389 12.1384 214.03 13.6344 214.115 16.5648V16.5648Z" fill="#EA4335"/>
<path d="M12.8038 14.8223V11.6009H23.6592C23.7653 12.1624 23.8201 12.8265 23.8201 13.5454C23.8201 15.9623 23.1594 18.9509 21.0301 21.0803C18.9589 23.237 16.3127 24.3873 12.8072 24.3873C6.30967 24.3873 0.846008 19.0947 0.846008 12.5971C0.846008 6.09954 6.30967 0.806976 12.8072 0.806976C16.4017 0.806976 18.9624 2.21741 20.8863 4.05577L18.6132 6.32891C17.2336 5.03486 15.3644 4.02839 12.8038 4.02839C8.059 4.02839 4.34809 7.85231 4.34809 12.5971C4.34809 17.342 8.059 21.1659 12.8038 21.1659C15.8813 21.1659 17.6341 19.93 18.757 18.8072C19.6676 17.8965 20.2666 16.5957 20.5029 14.8189L12.8038 14.8223Z" fill="#4285F4"/>
</svg>
