<svg width="111" height="112" viewBox="0 0 111 112" fill="#5f6368" xmlns="http://www.w3.org/2000/svg">
<path d="M55.5 37.3333C60.5875 37.3333 64.75 33.1333 64.75 28C64.75 22.8667 60.5875 18.6667 55.5 18.6667C50.4125 18.6667 46.25 22.8667 46.25 28C46.25 33.1333 50.4125 37.3333 55.5 37.3333ZM55.5 46.6667C50.4125 46.6667 46.25 50.8667 46.25 56C46.25 61.1333 50.4125 65.3333 55.5 65.3333C60.5875 65.3333 64.75 61.1333 64.75 56C64.75 50.8667 60.5875 46.6667 55.5 46.6667ZM55.5 74.6667C50.4125 74.6667 46.25 78.8667 46.25 84C46.25 89.1333 50.4125 93.3333 55.5 93.3333C60.5875 93.3333 64.75 89.1333 64.75 84C64.75 78.8667 60.5875 74.6667 55.5 74.6667Z" fill="#5f6368"/>
</svg>
