<svg width="152" height="152" viewBox="0 0 152 152" fill="#5f6368" xmlns="http://www.w3.org/2000/svg">
<path d="M76 69.6667H114V82.3333H76V69.6667ZM38 107.667H114V95H38V107.667ZM38 82.3333H63.3333V44.3333H38V82.3333ZM139.333 36.6067V115.393C139.333 125.147 130.847 133 120.333 133H31.6667C21.28 133 12.6667 125.083 12.6667 115.393V36.6067C12.6667 26.98 21.28 19 31.6667 19H120.333C130.72 19 139.333 26.9167 139.333 36.6067V36.6067ZM126.603 76V36.6067C126.603 33.9467 123.69 31.6667 120.27 31.6667H31.6667C28.2467 31.6667 25.3333 33.9467 25.3333 36.6067V115.393C25.3333 118.053 28.2467 120.333 31.6667 120.333H120.333C123.753 120.333 126.667 118.053 126.667 115.393V76H126.603ZM76 57H114V44.3333H76V57Z" fill="#5f6368"/>
</svg>
