<svg width="219" height="219" viewBox="0 0 219 219" fill="#5f6368" xmlns="http://www.w3.org/2000/svg">
<path d="M127.75 118.625L164.25 164.25H54.75L91.25 127.75L107.584 143.992L127.75 118.625ZM72.9087 91.3413C77.761 91.3534 82.4194 89.4374 85.8591 86.0148C89.2987 82.5923 91.2379 77.9436 91.25 73.0913C91.2621 68.239 89.3461 63.5806 85.9236 60.1409C82.5011 56.7013 77.8523 54.7621 73 54.75C68.1477 54.7379 63.4893 56.6539 60.0497 60.0764C56.61 63.4989 54.6709 68.1477 54.6588 73C54.6467 77.8523 56.5626 82.5107 59.9852 85.9503C63.4077 89.39 68.0564 91.3292 72.9087 91.3413V91.3413ZM200.75 45.625V173.375C200.726 180.619 197.831 187.559 192.7 192.673C187.569 197.787 180.62 200.659 173.375 200.659H45.625C30.66 200.659 18.25 188.249 18.25 173.284V45.625C18.25 30.66 30.66 18.25 45.625 18.25H173.375C188.431 18.25 200.75 30.66 200.75 45.625ZM182.409 45.625C182.409 43.2049 181.447 40.8839 179.736 39.1727C178.025 37.4614 175.704 36.5 173.284 36.5H45.625C43.2049 36.5 40.8839 37.4614 39.1727 39.1727C37.4614 40.8839 36.5 43.2049 36.5 45.625V173.375C36.5 175.795 37.4614 178.116 39.1727 179.827C40.8839 181.539 43.2049 182.5 45.625 182.5H109.5V182.409H173.375C175.795 182.409 178.116 181.447 179.827 179.736C181.539 178.025 182.5 175.704 182.5 173.284V45.625" fill="#5f6368"/>
</svg>
