<svg width="205" height="205" viewBox="0 0 205 205" fill="none" xmlns="http://www.w3.org/2000/svg">
<path d="M85.4167 17.0833V34.1667C99.009 34.1667 112.045 39.5662 121.656 49.1775C131.267 58.7887 136.667 71.8243 136.667 85.4167H153.75C153.75 67.2935 146.551 49.9127 133.736 37.0977C120.921 24.2827 103.54 17.0833 85.4167 17.0833" fill="#34A853"/>
<path d="M85.4167 34.1667V17.0833C67.2935 17.0833 49.9127 24.2827 37.0977 37.0977C24.2827 49.9127 17.0833 67.2935 17.0833 85.4167H34.1667C34.1667 57.2292 57.2292 34.1667 85.4167 34.1667Z" fill="#EA4335"/>
<path d="M34.1667 85.4167H17.0833C17.0833 103.54 24.2827 120.921 37.0977 133.736C49.9127 146.551 67.2935 153.75 85.4167 153.75V136.667C57.2292 136.667 34.1667 113.69 34.1667 85.4167Z" fill="#FBBC04"/>
<path d="M187.917 175.873L139.315 127.271C148.661 115.321 153.742 100.588 153.75 85.4167H136.667C136.667 99.009 131.267 112.045 121.656 121.656C112.045 131.267 99.009 136.667 85.4167 136.667V153.75C101.219 153.75 115.483 148.283 127.1 139.4L175.702 188.002L187.917 175.873Z" fill="#4285F4"/>
</svg>
