<svg width="128" height="128" viewBox="0 0 128 128" fill="#5f6368" xmlns="http://www.w3.org/2000/svg">
<path d="M112.587 15.4133C111.078 13.8968 109.282 12.6959 107.304 11.881C105.326 11.066 103.206 10.6532 101.067 10.6667H70.1333C65.8133 10.6667 61.7067 12.32 58.6133 15.4133L38.6667 35.36L15.4667 58.56C12.4183 61.619 10.7066 65.7615 10.7066 70.08C10.7066 74.3986 12.4183 78.541 15.4667 81.6L46.3467 112.533C47.8543 114.053 49.647 115.259 51.6219 116.085C53.5968 116.91 55.7152 117.337 57.8556 117.342C59.996 117.347 62.1163 116.93 64.0951 116.114C66.0738 115.298 67.872 114.099 69.3867 112.587L112.533 69.3867C115.627 66.2933 117.333 62.24 117.333 57.8667V26.9333C117.333 22.6133 115.627 18.4533 112.587 15.4133V15.4133ZM106.667 57.8667C106.667 59.36 106.027 60.7467 104.96 61.8133L85.0667 81.76L61.8133 105.013C59.6267 107.2 56.0533 107.2 53.8667 105.013L38.4533 89.5467L22.9867 74.08C21.9412 73.0218 21.3549 71.5942 21.3549 70.1067C21.3549 68.6191 21.9412 67.1915 22.9867 66.1333L66.1867 22.9333C67.2533 21.8667 68.64 21.3333 70.1333 21.3333L101.067 21.28C101.807 21.28 102.539 21.4266 103.222 21.7113C103.905 21.9961 104.525 22.4133 105.045 22.939C105.566 23.4647 105.978 24.0883 106.256 24.7739C106.534 25.4595 106.674 26.1935 106.667 26.9333V57.8667ZM85.3333 32C91.2 32 96 36.8 96 42.6667C96 48.5333 91.2 53.3333 85.3333 53.3333C79.4667 53.3333 74.6667 48.5333 74.6667 42.6667C74.6667 36.8 79.4667 32 85.3333 32Z" fill="#5f6368"/>
</svg>
