<svg width="181" height="182" viewBox="0 0 181 182" fill="#5f6368" xmlns="http://www.w3.org/2000/svg">
<path d="M75.4167 125.125L120.667 91L75.4167 56.875V125.125ZM37.7083 151.667H143.292C145.292 151.667 147.21 150.868 148.624 149.446C150.039 148.023 150.833 146.095 150.833 144.083V37.9167C150.833 35.9054 150.039 33.9766 148.624 32.5544C147.21 31.1323 145.292 30.3333 143.292 30.3333H37.7083C35.7082 30.3333 33.7899 31.1323 32.3756 32.5544C30.9612 33.9766 30.1667 35.9054 30.1667 37.9167V144.083C30.1667 146.095 30.9612 148.023 32.3756 149.446C33.7899 150.868 35.7082 151.667 37.7083 151.667ZM147.063 166.833H37.7083C31.7078 166.833 25.953 164.436 21.71 160.17C17.467 155.904 15.0833 150.117 15.0833 144.083V33.3667C15.0833 28.5397 16.9903 23.9105 20.3847 20.4973C23.7791 17.0842 28.3829 15.1667 33.1833 15.1667H147.817C152.617 15.1667 157.221 17.0842 160.615 20.4973C164.01 23.9105 165.917 28.5397 165.917 33.3667V147.875C165.917 152.903 163.93 157.725 160.394 161.281C156.859 164.836 152.063 166.833 147.063 166.833Z" fill="#5f6368"/>
</svg>
